# xmcd
#
# Track frame offsets: 
#        150
#        12599
#        29071
#        49133
#        66028
#        77326
#        92502
#        108089
#        125255
#        142095
#        160705
#        176477
#
# Disc length: 2425 seconds
#
# Revision: 0
# Processed by: cddbd v1.5.2PL0 Copyright (c) Steve Scherf et al.
# Submitted via: ExactAudioCopy v0.95b4
#
DISCID=9409770c
DTITLE=Promised Land Quartet - Rejoice
DYEAR=2003
DGENRE=Southern Gospel
TTITLE0=Rejoice
TTITLE1=First Day Of Heaven
TTITLE2=My Anchor Of Hope
TTITLE3=Here For Now But Not For Long
TTITLE4=Wann Be, Gonna Be, Someday Will Be
TTITLE5=He Carried The Cross For Me
TTITLE6=Child Of God
TTITLE7=It'll Be Joy
TTITLE8=God Hath Raised Him From The Dead
TTITLE9=In The Morning
TTITLE10=One Of These Days
TTITLE11=Rejoice (Reprise)
EXTD=
EXTT0=
EXTT1=
EXTT2=
EXTT3=
EXTT4=
EXTT5=
EXTT6=
EXTT7=
EXTT8=
EXTT9=
EXTT10=
EXTT11=
PLAYORDER=
